<svg width="90" height="90" viewBox="0 0 90 90" fill="none" xmlns="http://www.w3.org/2000/svg">
<path d="M75 81H15C8.4 81 3 75.6 3 69V36C3 29.4 8.4 24 15 24H75C81.6 24 87 29.4 87 36V69C87 75.6 81.6 81 75 81Z" fill="#8A8AFF" stroke="#8A8AFF" stroke-width="2" stroke-miterlimit="10" stroke-linecap="round" stroke-linejoin="round"/>
<path d="M63 27H27L31.5 15.9C32.4 13.5 34.5 12 37.2 12H53.1C55.5 12 57.9 13.5 58.8 15.9L63 27Z" fill="#8A8AFF" stroke="#8A8AFF" stroke-width="2" stroke-miterlimit="10" stroke-linecap="round" stroke-linejoin="round"/>
<path d="M45 69C54.9411 69 63 60.9411 63 51C63 41.0589 54.9411 33 45 33C35.0589 33 27 41.0589 27 51C27 60.9411 35.0589 69 45 69Z" fill="#6C3DB7" stroke="#6C3DB7" stroke-width="2" stroke-miterlimit="10" stroke-linecap="round" stroke-linejoin="round"/>
</svg>
