<svg width="57" height="57" viewBox="0 0 57 57" fill="none" xmlns="http://www.w3.org/2000/svg">
<g clip-path="url(#clip0_62_74)">
<path d="M28.5 0.483398C12.7582 0.483398 0 12.983 0 28.4057C0 43.8284 12.7582 56.328 28.5 56.328C44.2418 56.328 57 43.8284 57 28.4057C57 12.983 44.2418 0.483398 28.5 0.483398ZM34.79 23.672L34.4672 27.8494H30.092V42.3559H24.5701V27.8494H21.6199V23.672H24.5701V20.8689C24.5701 19.6363 24.6035 17.7276 25.5164 16.5387C26.485 15.2844 27.8098 14.4336 30.092 14.4336C33.8103 14.4336 35.3689 14.9572 35.3689 14.9572L34.6342 19.2328C34.6342 19.2328 33.4096 18.8838 32.2629 18.8838C31.1162 18.8838 30.092 19.2873 30.092 20.4108V23.672H34.79Z" fill="#2C0052"/>
</g>
<defs>
<clipPath id="clip0_62_74">
<rect width="57" height="55.8446" fill="white" transform="translate(0 0.483398)"/>
</clipPath>
</defs>
</svg>
