<svg xmlns="http://www.w3.org/2000/svg" width="24" height="31" viewBox="0 0 24 31">
  <g id="Path_3" data-name="Path 3" fill="#2c0052">
    <path d="M 23 29.13336944580078 L 12.50835037231445 22.15162086486816 L 11.95223999023438 21.78153991699219 L 11.39741992950439 22.1535701751709 L 1 29.12545585632324 L 1 4 C 1 2.345789909362793 2.345789909362793 1 4 1 L 20 1 C 21.65420913696289 1 23 2.345789909362793 23 4 L 23 29.13336944580078 Z" stroke="none"/>
    <path d="M 4 2 C 2.897199630737305 2 2 2.897199630737305 2 4 L 2 27.25090980529785 L 11.950119972229 20.57896041870117 L 22 27.26672172546387 L 22 4 C 22 2.897199630737305 21.1028003692627 2 20 2 L 4 2 M 4 0 L 20 0 C 22.20914077758789 0 24 1.790859222412109 24 4 L 24 31 L 11.95435047149658 22.984130859375 L 0 31 L 0 4 C 0 1.790859222412109 1.790859222412109 0 4 0 Z" stroke="none" fill="#2c0052"/>
  </g>
</svg>
