<svg width="57" height="57" viewBox="0 0 57 57" fill="none" xmlns="http://www.w3.org/2000/svg">
<g clip-path="url(#clip0_62_76)">
<path d="M28.5 33.3138C31.261 33.3138 33.5209 31.1106 33.5209 28.3947C33.5209 27.3258 33.1647 26.3333 32.5746 25.5261C31.6617 24.2936 30.1811 23.4756 28.5111 23.4756C26.8412 23.4756 25.3606 24.2827 24.4477 25.5261C23.8576 26.3333 23.5014 27.3258 23.5014 28.3947C23.4903 31.1106 25.7391 33.3138 28.5 33.3138Z" fill="#2C0052"/>
<path d="M39.4547 22.3958V18.2729V17.6621H38.8313L34.623 17.673L34.6453 22.4067L39.4547 22.3958Z" fill="#2C0052"/>
<path d="M36.293 28.4057C36.293 32.6158 32.7973 36.0407 28.5 36.0407C24.2027 36.0407 20.707 32.6158 20.707 28.4057C20.707 27.3913 20.9186 26.4206 21.2859 25.5371H17.0332V36.9678C17.0332 38.4403 18.2578 39.64 19.7607 39.64H37.2393C38.7422 39.64 39.9668 38.4403 39.9668 36.9678V25.5371H35.7141C36.0926 26.4206 36.293 27.3913 36.293 28.4057Z" fill="#2C0052"/>
<path d="M28.5 0.483398C12.7582 0.483398 0 12.983 0 28.4057C0 43.8284 12.7582 56.328 28.5 56.328C44.2418 56.328 57 43.8284 57 28.4057C57 12.983 44.2418 0.483398 28.5 0.483398ZM42.75 25.5371V36.9678C42.75 39.9455 40.2785 42.3668 37.2393 42.3668H19.7607C16.7215 42.3668 14.25 39.9455 14.25 36.9678V25.5371V19.8327C14.25 16.855 16.7215 14.4336 19.7607 14.4336H37.2393C40.2785 14.4336 42.75 16.855 42.75 19.8327V25.5371Z" fill="#2C0052"/>
</g>
<defs>
<clipPath id="clip0_62_76">
<rect width="57" height="55.8446" fill="white" transform="translate(0 0.483398)"/>
</clipPath>
</defs>
</svg>
