<svg width="57" height="57" viewBox="0 0 57 57" fill="none" xmlns="http://www.w3.org/2000/svg">
<g clip-path="url(#clip0_62_72)">
<path d="M28.5 0.483398C12.7582 0.483398 0 12.983 0 28.4057C0 43.8284 12.7582 56.328 28.5 56.328C44.2418 56.328 57 43.8284 57 28.4057C57 12.983 44.2418 0.483398 28.5 0.483398ZM20.5289 40.0872H14.9736V22.6685H20.5289V40.0872ZM17.601 20.4871H17.5564C15.5414 20.4871 14.2389 19.1564 14.2389 17.4658C14.2389 15.7425 15.5859 14.4445 17.6344 14.4445C19.6828 14.4445 20.9408 15.7425 20.9854 17.4658C20.9965 19.1455 19.6939 20.4871 17.601 20.4871ZM42.75 40.0872H36.4488V31.0779C36.4488 28.722 35.4691 27.1077 33.2982 27.1077C31.6395 27.1077 30.7154 28.1985 30.2924 29.2455C30.1365 29.6164 30.1588 30.1399 30.1588 30.6744V40.0872H23.9133C23.9133 40.0872 23.9912 24.1192 23.9133 22.6685H30.1588V25.4062C30.5262 24.2064 32.5189 22.5049 35.7029 22.5049C39.6551 22.5049 42.75 25.0136 42.75 30.4017V40.0872Z" fill="#2C0052"/>
</g>
<defs>
<clipPath id="clip0_62_72">
<rect width="57" height="55.8446" fill="white" transform="translate(0 0.483398)"/>
</clipPath>
</defs>
</svg>
