<svg xmlns="http://www.w3.org/2000/svg" viewBox="0 -960 960 960" class="pointer-events-none flex-shrink-0 box-content h-6 w-6 "><path fill="currentColor" d="M242.153-200h87.848q12.749 0 21.374 8.629T360-169.987t-8.625 21.37q-8.625 8.616-21.374 8.616H176.155q-15.365 0-25.759-10.395t-10.395-25.759v-153.846q0-12.749 8.629-21.374T170.014-360t21.371 8.625T200-330.001v87.848l112.924-112.924q8.308-8.308 20.884-8.5t21.269 8.5 8.692 21.076-8.692 21.077zm475.694 0L604.923-312.924q-8.308-8.308-8.5-20.884t8.5-21.269 21.076-8.692 21.077 8.692L760-242.153v-87.848q0-12.749 8.629-21.374T790.013-360t21.37 8.625 8.616 21.374v153.846q0 15.365-10.395 25.759t-25.759 10.395H629.999q-12.749 0-21.374-8.629T600-170.014t8.625-21.371T629.999-200zM200-717.847v87.848q0 12.749-8.629 21.374T169.987-600t-21.37-8.625q-8.616-8.625-8.616-21.374v-153.846q0-15.365 10.395-25.759t25.759-10.395h153.846q12.749 0 21.374 8.629T360-789.986t-8.625 21.371T330.001-760h-87.848l112.924 112.924q8.308 8.308 8.5 20.884t-8.5 21.269-21.076 8.692-21.077-8.692zm560 0L647.076-604.923q-8.308 8.308-20.884 8.5t-21.269-8.5-8.692-21.076 8.692-21.077L717.847-760h-87.848q-12.749 0-21.374-8.629T600-790.013t8.625-21.37 21.374-8.616h153.846q15.365 0 25.759 10.395t10.395 25.759v153.846q0 12.749-8.629 21.374T789.986-600t-21.371-8.625T760-629.999z"></path></svg>