<svg width="49" height="49" viewBox="0 0 49 49" fill="none" xmlns="http://www.w3.org/2000/svg">
<circle cx="24.5" cy="24.5" r="24.5" transform="rotate(-180 24.5 24.5)" fill="#D9D9D9"/>
<path d="M19.2441 25.796L27.5775 34.7381C27.9029 35.0873 28.4305 35.0873 28.756 34.738C29.0814 34.3888 29.0814 33.8226 28.7559 33.4734L21.0118 25.1636L28.756 16.8533C29.0814 16.5041 29.0814 15.9379 28.7559 15.5887C28.5932 15.4141 28.38 15.3268 28.1667 15.3268C27.9534 15.3268 27.7401 15.4141 27.5774 15.5888L19.2441 24.5314C19.0878 24.6991 19 24.9265 19 25.1636C19 25.4008 19.0878 25.6283 19.2441 25.796Z" fill="white"/>
</svg>
