<svg width="30" height="46" viewBox="0 0 30 46" fill="none" xmlns="http://www.w3.org/2000/svg">
<path d="M22.7294 0H6.54671C2.97106 0 0.0668945 3.91548 0.0668945 8.68606V40.3924C0.0668945 44.4429 2.23243 46.1531 4.88479 44.1954L13.0769 38.0971C13.9498 37.4446 15.3599 37.4446 16.2161 38.0971L24.4081 44.1954C27.0605 46.1756 29.226 44.4654 29.226 40.3924V8.68606C29.2093 3.91548 26.3051 0 22.7294 0ZM18.8348 21.1526H10.4413C9.75304 21.1526 9.18228 20.3875 9.18228 19.4649C9.18228 18.5423 9.75304 17.7772 10.4413 17.7772H18.8348C19.5231 17.7772 20.0939 18.5423 20.0939 19.4649C20.0939 20.3875 19.5231 21.1526 18.8348 21.1526Z" fill="#2C0052"/>
</svg>
