<?xml version="1.0" encoding="utf-8"?>
<!-- Generator: Adobe Illustrator 28.1.0, SVG Export Plug-In . SVG Version: 6.00 Build 0)  -->
<svg version="1.1" id="_x30_1" xmlns="http://www.w3.org/2000/svg" xmlns:xlink="http://www.w3.org/1999/xlink" x="0px" y="0px"
	 viewBox="0 0 800 800" style="enable-background:new 0 0 800 800;" xml:space="preserve">
<path d="M400,0C179.1,0,0,179.1,0,400s179.1,400,400,400s400-179.1,400-400S620.9,0,400,0z M653.6,228.1h-72.9
	c-8.4-35.2-19.3-67.5-32.2-96.1c24.7,13.7,47.6,30.9,68.1,51.4C630.4,197.3,642.8,212.3,653.6,228.1z M706.2,400
	c0,26.7-3.4,52.9-10,78.1H596.2c2.5-25.3,3.8-51.4,3.8-78.1c0-26.7-1.3-52.9-3.8-78.1h100.1C702.8,347.1,706.2,373.3,706.2,400z
	 M400,706.2c-8.1,0-32.9-16-57.6-65.3c-10.2-20.4-19-43.7-26.2-69h167.5c-7.2,25.3-16,48.6-26.2,69
	C432.9,690.3,408.1,706.2,400,706.2z M298.1,478.1c-2.9-25.4-4.4-51.6-4.4-78.1c0-26.5,1.5-52.7,4.4-78.1h203.7
	c2.9,25.4,4.4,51.6,4.4,78.1c0,26.5-1.5,52.7-4.4,78.1H298.1z M93.8,400c0-26.7,3.4-52.9,10-78.1h100.1c-2.5,25.3-3.8,51.4-3.8,78.1
	c0,26.7,1.3,52.9,3.8,78.1H103.8C97.2,452.9,93.8,426.7,93.8,400z M400,93.7c8.1,0,32.9,16,57.6,65.3c10.2,20.4,19,43.7,26.2,69
	H316.3c7.2-25.3,15.9-48.6,26.2-69C367.1,109.7,391.9,93.7,400,93.7z M251.5,132c-12.9,28.6-23.8,60.9-32.2,96.1h-72.9
	c10.8-15.9,23.1-30.8,37-44.7C204,162.9,226.9,145.7,251.5,132z M146.4,571.9h72.9c8.4,35.2,19.3,67.5,32.2,96.1
	c-24.7-13.7-47.6-30.9-68.1-51.4C169.6,602.7,157.2,587.7,146.4,571.9z M548.5,668c12.9-28.6,23.8-60.9,32.2-96.1h72.9
	c-10.8,15.9-23.1,30.8-37,44.7C596,637.1,573.1,654.3,548.5,668z"/>
</svg>
