<svg width="2048" height="836" viewBox="0 0 2048 836" fill="none" xmlns="http://www.w3.org/2000/svg">
<path d="M623.848 172.333H395.256V236.234C395.256 271.543 366.534 300.135 331.355 300.135C296.177 300.135 267.455 271.413 267.455 236.234V172.333H176.285C164.032 172.333 154.019 182.213 154.019 194.599V733.333C154.019 745.586 163.899 755.599 176.285 755.599H623.715C635.968 755.599 645.981 745.717 645.981 733.333V194.466C645.983 182.346 635.968 172.333 623.848 172.333Z" fill="white"/>
<path d="M459.157 339.263C472.859 339.263 484.058 328.064 484.058 314.362C484.058 300.66 472.859 289.461 459.157 289.461C445.456 289.461 434.257 300.66 434.257 314.362C434.387 328.064 445.719 339.263 459.157 339.263Z" fill="#3B41F1"/>
<path d="M459.157 450.065C429.249 450.065 403.032 468.379 391.7 494.466H526.482C515.283 468.379 489.196 450.065 459.157 450.065Z" fill="#3B41F1"/>
<path d="M331.358 255.732C342.029 255.732 350.858 246.905 350.858 236.232V172.333H311.86V236.234C311.858 247.036 320.686 255.732 331.358 255.732Z" fill="white"/>
<path d="M459.157 383.664C497.365 383.664 528.459 352.702 528.459 314.362C528.459 276.155 497.497 245.061 459.157 245.061C420.95 245.061 389.856 276.023 389.856 314.362C389.988 352.569 421.081 383.664 459.157 383.664ZM459.157 289.592C472.859 289.592 484.058 300.791 484.058 314.493C484.058 328.194 472.859 339.394 459.157 339.394C445.456 339.394 434.257 328.194 434.257 314.493C434.387 300.791 445.719 289.592 459.157 289.592Z" fill="#3B41F1"/>
<path d="M459.157 405.665C397.629 405.665 345.983 453.754 341.634 515.15C341.106 521.342 343.346 527.403 347.562 531.883C351.779 536.495 357.708 538.997 363.769 538.997H554.546C560.738 538.997 566.666 536.495 570.753 531.883C574.969 527.271 577.077 521.342 576.681 515.15C572.465 453.754 520.816 405.665 459.157 405.665ZM391.833 494.466C403.164 468.379 429.251 450.065 459.29 450.065C489.329 450.065 515.416 468.379 526.747 494.466H391.833Z" fill="#3B41F1"/>
<path d="M554.679 646.246H253.229C240.977 646.246 230.964 656.126 230.964 668.511C230.964 680.764 240.844 690.777 253.229 690.777H554.679C566.931 690.777 576.944 680.894 576.944 668.511C576.812 656.258 566.931 646.246 554.679 646.246Z" fill="#3B41F1"/>
<path d="M554.679 567.457H253.229C240.977 567.457 230.964 577.337 230.964 589.723C230.964 601.975 240.844 611.988 253.229 611.988H554.679C566.931 611.988 576.944 602.108 576.944 589.723C576.812 577.339 566.931 567.457 554.679 567.457Z" fill="#3B41F1"/>
<path d="M253.097 517.655H286.824C299.077 517.655 309.09 507.775 309.09 495.39C309.09 483.137 299.21 473.124 286.824 473.124H253.097C240.844 473.124 230.831 483.004 230.831 495.39C230.831 507.775 240.844 517.655 253.097 517.655Z" fill="#3B41F1"/>
<path d="M252.964 423.583H321.345C333.598 423.583 343.611 413.703 343.611 401.317C343.611 389.065 333.73 379.052 321.345 379.052H252.964C240.712 379.052 230.699 388.932 230.699 401.317C230.699 413.703 240.579 423.583 252.964 423.583Z" fill="#3B41F1"/>
<path d="M623.848 127.932H395.257V103.031C395.257 46.1128 349.011 0 292.227 0C235.311 0 189.196 46.1128 189.196 103.031V127.932H176.285C139.527 127.932 109.618 157.84 109.618 194.599V733.333C109.618 770.092 139.527 800 176.285 800H623.715C660.474 800 690.382 770.092 690.382 733.333V194.466C690.382 157.838 660.476 127.932 623.848 127.932ZM233.729 103.031C233.729 70.7528 260.079 44.4009 292.36 44.4009C324.64 44.4009 350.99 70.7507 350.99 103.031V127.932H311.992V124.639C311.992 112.386 302.112 102.373 289.727 102.373C277.474 102.373 267.461 112.253 267.461 124.639V127.932H233.733C233.729 127.932 233.729 103.031 233.729 103.031ZM350.858 172.333V236.234C350.858 246.905 342.031 255.734 331.358 255.734C320.684 255.734 311.858 247.038 311.858 236.234V172.333H350.858ZM645.983 733.333C645.983 745.586 636.101 755.599 623.717 755.599H176.152C163.9 755.599 153.887 745.717 153.887 733.333V194.466C153.887 182.213 163.767 172.201 176.152 172.201H267.324V236.101C267.324 271.411 296.047 300.002 331.225 300.002C366.534 300.002 395.126 271.28 395.126 236.101V172.201H623.585C635.838 172.201 645.851 182.081 645.851 194.466V733.333H645.983Z" fill="#3B41F1"/>
<path d="M833.88 395V182.2H910.792C923.56 182.2 934.099 184.125 942.408 187.976C950.92 191.624 957.709 196.488 962.776 202.568C967.843 208.648 971.389 215.336 973.416 222.632C975.645 229.725 976.76 236.717 976.76 243.608C976.76 255.363 973.315 266.712 966.424 277.656C959.533 288.6 948.893 296.707 934.504 301.976L988.616 395H957L907.144 306.232H861.24V395H833.88ZM860.632 281.912H910.792C921.939 281.912 931.16 278.264 938.456 270.968C945.752 263.469 949.4 254.349 949.4 243.608C949.4 237.123 947.779 231.144 944.536 225.672C941.293 219.997 936.733 215.437 930.856 211.992C925.181 208.344 918.595 206.52 911.096 206.52H860.632V281.912ZM1090 398.952C1077.23 398.952 1065.37 395.811 1054.43 389.528C1043.48 383.043 1034.67 373.821 1027.98 361.864C1021.29 349.907 1017.95 335.821 1017.95 319.608C1017.95 302.989 1021.29 288.701 1027.98 276.744C1034.67 264.787 1043.48 255.565 1054.43 249.08C1065.37 242.595 1077.23 239.352 1090 239.352C1102.97 239.352 1114.62 242.088 1124.96 247.56C1135.49 252.829 1143.8 261.139 1149.88 272.488C1156.17 283.635 1159.31 298.024 1159.31 315.656V325.08H1043.18C1043.99 339.672 1048.25 351.832 1055.95 361.56C1063.65 371.085 1074.8 375.848 1089.39 375.848C1098.51 375.848 1106.82 373.72 1114.32 369.464C1121.81 365.208 1127.69 359.229 1131.95 351.528L1154.44 360.648C1141.88 386.184 1120.4 398.952 1090 398.952ZM1089.39 262.456C1077.02 262.456 1067.09 266.307 1059.6 274.008C1052.3 281.507 1047.44 291.032 1045 302.584H1133.77C1133.77 296.909 1132.05 291.032 1128.6 284.952C1125.36 278.669 1120.5 273.4 1114.01 269.144C1107.53 264.685 1099.32 262.456 1089.39 262.456ZM1249.39 398.648C1239.26 398.648 1229.63 396.52 1220.51 392.264C1211.39 387.805 1204 381.725 1198.32 374.024C1192.65 366.323 1189.81 357.507 1189.81 347.576H1217.17C1217.17 353.859 1218.99 359.128 1222.64 363.384C1226.29 367.437 1230.75 370.477 1236.02 372.504C1241.29 374.531 1246.45 375.544 1251.52 375.544C1261.65 375.544 1269.76 373.72 1275.84 370.072C1281.92 366.424 1284.96 360.851 1284.96 353.352C1284.96 346.664 1282.73 341.699 1278.27 338.456C1273.81 335.011 1268.14 332.477 1261.25 330.856C1254.36 329.032 1246.96 327.411 1239.06 325.992C1231.15 324.573 1223.76 322.547 1216.87 319.912C1209.97 317.277 1204.3 313.224 1199.84 307.752C1195.38 302.28 1193.15 294.68 1193.15 284.952C1193.15 277.453 1195.18 270.259 1199.23 263.368C1203.29 256.477 1209.37 250.803 1217.47 246.344C1225.78 241.683 1236.12 239.352 1248.48 239.352C1263.28 239.352 1274.93 241.784 1283.44 246.648C1292.16 251.309 1298.34 257.085 1301.99 263.976C1305.84 270.664 1307.76 277.149 1307.76 283.432H1281.62C1281.62 278.365 1278.78 273.603 1273.11 269.144C1267.43 264.685 1259.12 262.456 1248.18 262.456C1238.25 262.456 1230.85 264.483 1225.99 268.536C1221.12 272.387 1218.69 277.555 1218.69 284.04C1218.69 289.715 1220.92 294.072 1225.38 297.112C1229.84 300.152 1235.51 302.584 1242.4 304.408C1249.49 306.029 1256.89 307.752 1264.59 309.576C1272.5 311.197 1279.89 313.629 1286.79 316.872C1293.88 319.912 1299.65 324.371 1304.11 330.248C1308.57 335.923 1310.8 343.624 1310.8 353.352C1310.8 361.459 1308.57 368.957 1304.11 375.848C1299.86 382.739 1293.17 388.312 1284.05 392.568C1275.13 396.621 1263.58 398.648 1249.39 398.648ZM1404.72 398.648C1389.92 398.648 1377.66 393.885 1367.93 384.36C1358.41 374.835 1353.64 360.952 1353.64 342.712V243H1379.18V339.064C1379.18 352.237 1382.32 361.661 1388.6 367.336C1394.89 372.808 1403.09 375.544 1413.23 375.544C1427.21 375.544 1437.75 370.781 1444.84 361.256C1451.94 351.731 1455.48 339.672 1455.48 325.08V243H1481.02V395H1455.48V366.424C1454.67 369.869 1452.34 374.227 1448.49 379.496C1444.84 384.563 1439.47 389.021 1432.38 392.872C1425.29 396.723 1416.07 398.648 1404.72 398.648ZM1536.86 395V243H1562.39V271.576C1563.41 267.928 1565.74 263.571 1569.39 258.504C1573.03 253.437 1578.41 248.979 1585.5 245.128C1592.59 241.277 1601.81 239.352 1613.16 239.352C1624.71 239.352 1634.75 242.392 1643.26 248.472C1651.97 254.349 1658.05 263.064 1661.5 274.616V274.008C1662.51 270.36 1665.05 265.8 1669.1 260.328C1673.15 254.856 1678.93 249.992 1686.43 245.736C1694.13 241.48 1703.65 239.352 1715 239.352C1729.8 239.352 1741.96 244.115 1751.48 253.64C1761.21 263.165 1766.07 277.048 1766.07 295.288V395H1740.54V298.936C1740.54 285.763 1737.4 276.44 1731.11 270.968C1724.83 265.293 1716.62 262.456 1706.49 262.456C1692.51 262.456 1681.97 267.219 1674.87 276.744C1667.78 286.269 1664.23 298.328 1664.23 312.92V395H1638.7V298.936C1638.7 285.763 1635.56 276.44 1629.27 270.968C1622.99 265.293 1614.78 262.456 1604.65 262.456C1590.67 262.456 1580.13 267.219 1573.03 276.744C1565.94 286.269 1562.39 298.328 1562.39 312.92V395H1536.86ZM1881.17 398.952C1868.4 398.952 1856.54 395.811 1845.6 389.528C1834.66 383.043 1825.84 373.821 1819.15 361.864C1812.46 349.907 1809.12 335.821 1809.12 319.608C1809.12 302.989 1812.46 288.701 1819.15 276.744C1825.84 264.787 1834.66 255.565 1845.6 249.08C1856.54 242.595 1868.4 239.352 1881.17 239.352C1894.14 239.352 1905.79 242.088 1916.13 247.56C1926.67 252.829 1934.98 261.139 1941.06 272.488C1947.34 283.635 1950.48 298.024 1950.48 315.656V325.08H1834.35C1835.16 339.672 1839.42 351.832 1847.12 361.56C1854.82 371.085 1865.97 375.848 1880.56 375.848C1889.68 375.848 1897.99 373.72 1905.49 369.464C1912.99 365.208 1918.86 359.229 1923.12 351.528L1945.62 360.648C1933.05 386.184 1911.57 398.952 1881.17 398.952ZM1880.56 262.456C1868.2 262.456 1858.27 266.307 1850.77 274.008C1843.47 281.507 1838.61 291.032 1836.18 302.584H1924.94C1924.94 296.909 1923.22 291.032 1919.78 284.952C1916.53 278.669 1911.67 273.4 1905.18 269.144C1898.7 264.685 1890.49 262.456 1880.56 262.456ZM834.488 760V546.896H910.184C931.059 546.896 947.069 551.456 958.216 560.576C969.363 569.493 974.936 582.768 974.936 600.4C974.936 612.763 971.896 622.389 965.816 629.28C959.939 636.171 952.541 641.035 943.624 643.872C958.013 647.115 968.755 652.992 975.848 661.504C983.144 669.813 986.792 681.771 986.792 697.376C986.792 716.629 980.509 731.931 967.944 743.28C955.379 754.427 936.936 760 912.616 760H834.488ZM861.24 633.84H908.968C920.115 633.84 929.235 631.003 936.328 625.328C943.624 619.451 947.272 611.243 947.272 600.704C947.272 590.571 943.624 583.173 936.328 578.512C929.032 573.648 919.811 571.216 908.664 571.216H861.24V633.84ZM861.24 735.68H912.616C926.6 735.68 937.747 732.336 946.056 725.648C954.568 718.96 958.824 709.536 958.824 697.376C958.824 684.811 955.075 675.184 947.576 668.496C940.28 661.605 929.64 658.16 915.656 658.16H861.24V735.68ZM1080.53 763.648C1065.73 763.648 1053.47 758.885 1043.74 749.36C1034.22 739.835 1029.46 725.952 1029.46 707.712V608H1054.99V704.064C1054.99 717.237 1058.13 726.661 1064.42 732.336C1070.7 737.808 1078.91 740.544 1089.04 740.544C1103.02 740.544 1113.56 735.781 1120.66 726.256C1127.75 716.731 1131.3 704.672 1131.3 690.08V608H1156.83V760H1131.3V731.424C1130.49 734.869 1128.16 739.227 1124.3 744.496C1120.66 749.563 1115.29 754.021 1108.19 757.872C1101.1 761.723 1091.88 763.648 1080.53 763.648ZM1224.53 579.12C1219.66 579.12 1215.41 577.397 1211.76 573.952C1208.31 570.304 1206.59 566.149 1206.59 561.488C1206.59 556.624 1208.31 552.469 1211.76 549.024C1215.41 545.376 1219.66 543.552 1224.53 543.552C1229.19 543.552 1233.24 545.376 1236.69 549.024C1240.13 552.469 1241.86 556.624 1241.86 561.488C1241.86 566.149 1240.13 570.304 1236.69 573.952C1233.24 577.397 1229.19 579.12 1224.53 579.12ZM1211.46 760V608H1236.99V760H1211.46ZM1291.03 760V543.552H1316.57V760H1291.03ZM1427.17 763.648C1413.99 763.648 1402.14 760.608 1391.6 754.528C1381.26 748.245 1373.16 739.227 1367.28 727.472C1361.4 715.515 1358.46 701.024 1358.46 684C1358.46 667.381 1361.3 653.195 1366.97 641.44C1372.65 629.483 1380.55 620.363 1390.69 614.08C1400.82 607.595 1412.47 604.352 1425.65 604.352C1432.74 604.352 1439.63 605.669 1446.32 608.304C1453.21 610.736 1459.19 614.384 1464.25 619.248C1469.52 624.112 1473.17 630.091 1475.2 637.184V543.552H1500.73V721.696C1500.73 727.776 1502.05 732.133 1504.69 734.768C1507.32 737.2 1512.39 737.605 1519.89 735.984V756.656C1517.86 757.872 1515.63 758.784 1513.2 759.392C1510.97 760 1507.93 760.304 1504.08 760.304C1496.17 760.304 1489.59 757.973 1484.32 753.312C1479.05 748.651 1476.41 740.949 1476.41 730.208C1474.19 735.68 1470.94 741.051 1466.69 746.32C1462.43 751.387 1456.96 755.541 1450.27 758.784C1443.79 762.027 1436.08 763.648 1427.17 763.648ZM1428.38 740.848C1443.38 740.848 1454.83 735.579 1462.73 725.04C1470.84 714.299 1474.89 700.619 1474.89 684C1474.89 673.664 1473.07 664.24 1469.42 655.728C1465.98 647.013 1460.81 640.123 1453.92 635.056C1447.23 629.989 1439.02 627.456 1429.29 627.456C1419.16 627.456 1410.65 630.091 1403.76 635.36C1397.07 640.427 1392.11 647.317 1388.86 656.032C1385.62 664.544 1384 674.069 1384 684.608C1384 695.147 1385.62 704.672 1388.86 713.184C1392.11 721.696 1396.97 728.485 1403.45 733.552C1410.14 738.416 1418.45 740.848 1428.38 740.848ZM1621.1 763.952C1608.34 763.952 1596.48 760.811 1585.54 754.528C1574.59 748.043 1565.78 738.821 1559.09 726.864C1552.4 714.907 1549.06 700.821 1549.06 684.608C1549.06 667.989 1552.4 653.701 1559.09 641.744C1565.78 629.787 1574.59 620.565 1585.54 614.08C1596.48 607.595 1608.34 604.352 1621.1 604.352C1634.08 604.352 1645.73 607.088 1656.06 612.56C1666.6 617.829 1674.91 626.139 1680.99 637.488C1687.28 648.635 1690.42 663.024 1690.42 680.656V690.08H1574.29C1575.1 704.672 1579.36 716.832 1587.06 726.56C1594.76 736.085 1605.9 740.848 1620.5 740.848C1629.62 740.848 1637.93 738.72 1645.42 734.464C1652.92 730.208 1658.8 724.229 1663.06 716.528L1685.55 725.648C1672.99 751.184 1651.5 763.952 1621.1 763.952ZM1620.5 627.456C1608.13 627.456 1598.2 631.307 1590.7 639.008C1583.41 646.507 1578.54 656.032 1576.11 667.584H1664.88C1664.88 661.909 1663.16 656.032 1659.71 649.952C1656.47 643.669 1651.61 638.4 1645.12 634.144C1638.64 629.685 1630.43 627.456 1620.5 627.456ZM1733.69 760V608H1759.22V638.096C1761.25 632.624 1764.09 627.355 1767.73 622.288C1771.59 617.019 1776.75 612.763 1783.24 609.52C1789.93 606.075 1798.44 604.352 1808.77 604.352C1810.4 604.352 1812.63 604.555 1815.46 604.96C1818.3 605.163 1820.43 605.365 1821.85 605.568V629.28C1818.81 628.267 1814.96 627.557 1810.29 627.152C1805.63 626.544 1801.38 626.645 1797.53 627.456C1785.16 629.888 1775.64 635.259 1768.95 643.568C1762.47 651.877 1759.22 663.328 1759.22 677.92V760H1733.69Z" fill="#3B41F1"/>
</svg>
