<svg width="126" height="24" viewBox="0 0 126 24" fill="none" xmlns="http://www.w3.org/2000/svg">
<path d="M40.8652 18.2539C40.1947 18.2539 39.638 18.127 39.1953 17.873C38.7526 17.6191 38.3978 17.235 38.1309 16.7207C37.8639 16.2064 37.6556 15.5618 37.5059 14.7871C37.4082 14.2663 37.291 13.8333 37.1543 13.4883C37.0241 13.1367 36.8776 12.8503 36.7148 12.6289C36.5391 12.4857 36.3275 12.3913 36.0801 12.3457C35.8327 12.2936 35.5267 12.2676 35.1621 12.2676H34.3027V15.5586C34.3027 15.8581 34.3678 16.0501 34.498 16.1348C34.6283 16.2194 34.8854 16.2617 35.2695 16.2617H35.6992V18C35.2174 18 34.7357 18 34.2539 18C33.7721 17.9935 33.2122 17.987 32.5742 17.9805C31.9427 17.9805 31.4154 17.9837 30.9922 17.9902C30.569 17.9967 30.1328 18 29.6836 18V16.2617H29.9961C30.3737 16.2617 30.6374 16.2259 30.7871 16.1543C30.9434 16.0762 31.0345 15.9622 31.0605 15.8125C31.0931 15.6628 31.1094 15.4805 31.1094 15.2656V7.9707C31.1094 7.72982 31.0898 7.53776 31.0508 7.39453C31.0117 7.24479 30.9108 7.13737 30.748 7.07227C30.5918 7.00065 30.3249 6.96484 29.9473 6.96484C29.9212 6.96484 29.8789 6.96484 29.8203 6.96484C29.7617 6.96484 29.7161 6.96484 29.6836 6.96484V5.22656H35.9238C36.6335 5.22656 37.3268 5.26888 38.0039 5.35352C38.681 5.43815 39.2897 5.60417 39.8301 5.85156C40.377 6.09245 40.8099 6.44727 41.1289 6.91602C41.4544 7.37826 41.6172 7.98698 41.6172 8.74219C41.6172 9.45182 41.3861 10.0703 40.9238 10.5977C40.4616 11.1185 39.8236 11.4733 39.0098 11.6621C39.4004 11.8444 39.752 12.1341 40.0645 12.5312C40.3835 12.9219 40.6048 13.5664 40.7285 14.4648C40.8392 15.1159 40.9596 15.5944 41.0898 15.9004C41.2201 16.2064 41.4447 16.3594 41.7637 16.3594C41.9915 16.3594 42.1641 16.2943 42.2812 16.1641C42.3984 16.0273 42.457 15.806 42.457 15.5L43.5898 15.3633C43.5898 16.2878 43.3457 17.0007 42.8574 17.502C42.3757 18.0033 41.7116 18.2539 40.8652 18.2539ZM34.3027 10.8516H35.8164C36.6888 10.8516 37.3333 10.7148 37.75 10.4414C38.1667 10.168 38.375 9.66992 38.375 8.94727C38.375 8.43294 38.2676 8.03581 38.0527 7.75586C37.8379 7.47591 37.5189 7.28385 37.0957 7.17969C36.6725 7.06901 36.1484 7.01367 35.5234 7.01367H34.3027V10.8516ZM49.4883 18.293C48.2969 18.293 47.3073 18.0911 46.5195 17.6875C45.7318 17.2773 45.1426 16.7174 44.752 16.0078C44.3613 15.2982 44.166 14.4941 44.166 13.5957C44.166 12.6257 44.3776 11.7891 44.8008 11.0859C45.2305 10.3763 45.8294 9.82943 46.5977 9.44531C47.3724 9.05469 48.2741 8.85938 49.3027 8.85938C50.3053 8.85938 51.1842 9.04818 51.9395 9.42578C52.6947 9.80339 53.2839 10.3633 53.707 11.1055C54.1367 11.8477 54.3516 12.7689 54.3516 13.8691L53.8242 13.9473H47.1836C47.1901 14.8717 47.418 15.5814 47.8672 16.0762C48.3229 16.571 48.9382 16.8184 49.7129 16.8184C50.2663 16.8184 50.7318 16.6914 51.1094 16.4375C51.4935 16.1771 51.7669 15.819 51.9297 15.3633L54.1562 15.5391C53.8958 16.4245 53.3587 17.1048 52.5449 17.5801C51.7311 18.0553 50.7122 18.293 49.4883 18.293ZM47.2129 12.668H51.5586C51.5586 11.9648 51.3698 11.3952 50.9922 10.959C50.6211 10.5163 50.0872 10.2949 49.3906 10.2949C48.7266 10.2949 48.209 10.5065 47.8379 10.9297C47.4733 11.3529 47.265 11.9323 47.2129 12.668ZM60.7383 18.2148C60.0807 18.2148 59.5273 18.1302 59.0781 17.9609C58.6289 17.7917 58.2611 17.5443 57.9746 17.2188L57.9355 17.9902C57.6361 17.9902 57.3398 17.9805 57.0469 17.9609C56.7539 17.9414 56.4577 17.9316 56.1582 17.9316V15.1582H57.9258C57.9779 15.7507 58.2285 16.1934 58.6777 16.4863C59.127 16.7728 59.6478 16.916 60.2402 16.916C60.696 16.916 61.0703 16.8314 61.3633 16.6621C61.6562 16.4928 61.8027 16.2617 61.8027 15.9688C61.8027 15.7083 61.666 15.4935 61.3926 15.3242C61.1257 15.1549 60.7741 14.9987 60.3379 14.8555C59.9082 14.7057 59.4492 14.5462 58.9609 14.377C58.3815 14.1686 57.8802 13.9505 57.457 13.7227C57.0339 13.4948 56.7083 13.2148 56.4805 12.8828C56.2526 12.5508 56.1387 12.1243 56.1387 11.6035C56.1387 10.7897 56.4382 10.1419 57.0371 9.66016C57.6361 9.17839 58.4857 8.9375 59.5859 8.9375C60.1589 8.9375 60.6927 9.01237 61.1875 9.16211C61.6888 9.30534 62.0794 9.52344 62.3594 9.81641C62.3724 9.76432 62.3887 9.67969 62.4082 9.5625C62.4342 9.4388 62.457 9.32487 62.4766 9.2207C62.5026 9.11654 62.5156 9.06445 62.5156 9.06445C62.5156 9.06445 62.6068 9.07422 62.7891 9.09375C62.9779 9.10677 63.1862 9.1263 63.4141 9.15234C63.6484 9.17188 63.8372 9.18815 63.9805 9.20117V11.8184H62.4375C62.3333 11.3431 62.0859 10.9655 61.6953 10.6855C61.3112 10.4056 60.8001 10.2559 60.1621 10.2363C59.6478 10.2363 59.2734 10.334 59.0391 10.5293C58.8112 10.7181 58.6973 10.9362 58.6973 11.1836C58.6973 11.4961 58.8861 11.737 59.2637 11.9062C59.6413 12.0755 60.1654 12.2611 60.8359 12.4629C61.5977 12.6712 62.2422 12.8991 62.7695 13.1465C63.3034 13.3874 63.707 13.6901 63.9805 14.0547C64.2539 14.4128 64.3906 14.8783 64.3906 15.4512C64.3906 16.1022 64.2148 16.6328 63.8633 17.043C63.5117 17.4466 63.056 17.7428 62.4961 17.9316C61.9427 18.1204 61.3568 18.2148 60.7383 18.2148ZM69.9277 18.2051C69.1921 18.2051 68.6029 18.0456 68.1602 17.7266C67.7174 17.4076 67.3984 16.9225 67.2031 16.2715C67.0143 15.6204 66.9199 14.8001 66.9199 13.8105V11.418C66.9199 11.1706 66.8874 10.998 66.8223 10.9004C66.7572 10.8027 66.6335 10.7474 66.4512 10.7344C66.2754 10.7148 66.0215 10.7051 65.6895 10.7051V9.14258C65.8327 9.14258 66.0247 9.14258 66.2656 9.14258C66.513 9.14258 66.7441 9.14583 66.959 9.15234C67.1803 9.15234 67.3203 9.15234 67.3789 9.15234C67.8086 9.14583 68.2285 9.13932 68.6387 9.13281C69.0553 9.1263 69.4785 9.11654 69.9082 9.10352V14.1133C69.9082 14.5885 69.9505 14.9954 70.0352 15.334C70.1198 15.666 70.2728 15.9199 70.4941 16.0957C70.7155 16.2715 71.0247 16.3594 71.4219 16.3594C71.9753 16.3594 72.4245 16.2715 72.7695 16.0957C73.1211 15.9199 73.3815 15.6921 73.5508 15.4121C73.6224 15.2168 73.6615 15.0052 73.668 14.7773C73.681 14.543 73.6875 14.2988 73.6875 14.0449V11.6035C73.6875 11.2975 73.6517 11.0859 73.5801 10.9688C73.515 10.8451 73.3848 10.7702 73.1895 10.7441C73.0007 10.7181 72.7207 10.7051 72.3496 10.7051V9.14258C72.6621 9.14909 72.9714 9.15234 73.2773 9.15234C73.5833 9.15234 73.9316 9.15234 74.3223 9.15234C74.7259 9.14583 75.1198 9.13932 75.5039 9.13281C75.8945 9.1263 76.2819 9.11654 76.666 9.10352V15.8223C76.666 16.0827 76.7474 16.252 76.9102 16.3301C77.0794 16.4017 77.4017 16.4375 77.877 16.4375V18C77.5775 18 77.3073 18 77.0664 18C76.8255 17.9935 76.5814 17.9902 76.334 17.9902C75.9043 17.9967 75.4746 18 75.0449 18C74.6217 18.0065 74.1986 18.0163 73.7754 18.0293C73.7754 17.8796 73.7754 17.7168 73.7754 17.541C73.7754 17.3652 73.7754 17.1992 73.7754 17.043C73.7754 16.8802 73.7754 16.7533 73.7754 16.6621C73.3392 17.1829 72.7858 17.5703 72.1152 17.8242C71.4512 18.0781 70.722 18.2051 69.9277 18.2051ZM78.8145 18V16.418C79.1855 16.418 79.459 16.3984 79.6348 16.3594C79.8171 16.3203 79.9342 16.2454 79.9863 16.1348C80.0449 16.0241 80.0742 15.8613 80.0742 15.6465V11.252C80.0742 10.998 79.9733 10.8418 79.7715 10.7832C79.5697 10.7246 79.2669 10.6953 78.8633 10.6953V9.13281C79.0521 9.13281 79.2311 9.13607 79.4004 9.14258C79.5762 9.14909 79.7552 9.15234 79.9375 9.15234C80.4388 9.15234 80.9368 9.14909 81.4316 9.14258C81.9264 9.12956 82.4342 9.11654 82.9551 9.10352V10.6465C83.3001 10.1842 83.7819 9.78385 84.4004 9.44531C85.0189 9.10677 85.7513 8.9375 86.5977 8.9375C87.2812 8.9375 87.8672 9.08724 88.3555 9.38672C88.8438 9.67969 89.2083 10.1191 89.4492 10.7051C89.9505 10.1452 90.5104 9.71224 91.1289 9.40625C91.7539 9.09375 92.418 8.9375 93.1211 8.9375C93.9089 8.9375 94.5273 9.10026 94.9766 9.42578C95.4258 9.7513 95.7448 10.2266 95.9336 10.8516C96.1224 11.4766 96.2168 12.2448 96.2168 13.1562V15.832C96.2168 16.1185 96.3079 16.2878 96.4902 16.3398C96.6725 16.3854 96.9818 16.4115 97.418 16.418V18C97.0013 18 96.5879 17.9967 96.1777 17.9902C95.7676 17.9837 95.3053 17.9805 94.791 17.9805C94.2897 17.9805 93.821 17.9837 93.3848 17.9902C92.9486 17.9967 92.5059 18 92.0566 18V16.418C92.5189 16.4115 92.8281 16.3496 92.9844 16.2324C93.1471 16.1152 93.2285 15.8776 93.2285 15.5195V12.8242C93.2285 12.1602 93.1211 11.6556 92.9062 11.3105C92.6914 10.9655 92.3008 10.793 91.7344 10.793C91.2917 10.793 90.9173 10.8841 90.6113 11.0664C90.3053 11.2422 90.0482 11.4701 89.8398 11.75C89.7747 11.9518 89.7259 12.1732 89.6934 12.4141C89.6608 12.6549 89.6445 12.9186 89.6445 13.2051V15.793C89.6445 16.0729 89.7259 16.2454 89.8887 16.3105C90.0579 16.3757 90.3639 16.4115 90.8066 16.418V18C90.3704 18 89.9505 18 89.5469 18C89.1432 17.9935 88.6484 17.987 88.0625 17.9805C87.5482 17.9805 87.099 17.9837 86.7148 17.9902C86.3372 17.9967 85.9499 18 85.5527 18V16.418C85.9824 16.4115 86.2721 16.3398 86.4219 16.2031C86.5781 16.0664 86.6562 15.8613 86.6562 15.5879V12.8242C86.6562 12.069 86.5521 11.5059 86.3438 11.1348C86.1354 10.7637 85.748 10.5781 85.1816 10.5781C84.7845 10.5781 84.4329 10.6628 84.127 10.832C83.8275 11.0013 83.5508 11.252 83.2969 11.584C83.2253 11.6882 83.1667 11.8835 83.1211 12.1699C83.0755 12.4564 83.0527 12.8112 83.0527 13.2344C83.0527 13.3906 83.0527 13.6022 83.0527 13.8691C83.0527 14.1296 83.0527 14.3932 83.0527 14.6602C83.0527 14.9271 83.0527 15.1549 83.0527 15.3438C83.0527 15.526 83.0527 15.6172 83.0527 15.6172C83.0527 15.8776 83.0951 16.0632 83.1797 16.1738C83.2643 16.2845 83.401 16.3529 83.5898 16.3789C83.7852 16.3984 84.0488 16.4115 84.3809 16.418V18C83.9056 18 83.4466 18 83.0039 18C82.5612 17.9935 82.0273 17.987 81.4023 17.9805C80.875 17.9805 80.4128 17.9837 80.0156 17.9902C79.625 17.9967 79.2246 18 78.8145 18ZM104.02 18.293C102.828 18.293 101.839 18.0911 101.051 17.6875C100.263 17.2773 99.6738 16.7174 99.2832 16.0078C98.8926 15.2982 98.6973 14.4941 98.6973 13.5957C98.6973 12.6257 98.9089 11.7891 99.332 11.0859C99.7617 10.3763 100.361 9.82943 101.129 9.44531C101.904 9.05469 102.805 8.85938 103.834 8.85938C104.837 8.85938 105.715 9.04818 106.471 9.42578C107.226 9.80339 107.815 10.3633 108.238 11.1055C108.668 11.8477 108.883 12.7689 108.883 13.8691L108.355 13.9473H101.715C101.721 14.8717 101.949 15.5814 102.398 16.0762C102.854 16.571 103.469 16.8184 104.244 16.8184C104.798 16.8184 105.263 16.6914 105.641 16.4375C106.025 16.1771 106.298 15.819 106.461 15.3633L108.688 15.5391C108.427 16.4245 107.89 17.1048 107.076 17.5801C106.262 18.0553 105.243 18.293 104.02 18.293ZM101.744 12.668H106.09C106.09 11.9648 105.901 11.3952 105.523 10.959C105.152 10.5163 104.618 10.2949 103.922 10.2949C103.258 10.2949 102.74 10.5065 102.369 10.9297C102.005 11.3529 101.796 11.9323 101.744 12.668ZM115.27 18.2148C114.612 18.2148 114.059 18.1302 113.609 17.9609C113.16 17.7917 112.792 17.5443 112.506 17.2188L112.467 17.9902C112.167 17.9902 111.871 17.9805 111.578 17.9609C111.285 17.9414 110.989 17.9316 110.689 17.9316V15.1582H112.457C112.509 15.7507 112.76 16.1934 113.209 16.4863C113.658 16.7728 114.179 16.916 114.771 16.916C115.227 16.916 115.602 16.8314 115.895 16.6621C116.188 16.4928 116.334 16.2617 116.334 15.9688C116.334 15.7083 116.197 15.4935 115.924 15.3242C115.657 15.1549 115.305 14.9987 114.869 14.8555C114.439 14.7057 113.98 14.5462 113.492 14.377C112.913 14.1686 112.411 13.9505 111.988 13.7227C111.565 13.4948 111.24 13.2148 111.012 12.8828C110.784 12.5508 110.67 12.1243 110.67 11.6035C110.67 10.7897 110.969 10.1419 111.568 9.66016C112.167 9.17839 113.017 8.9375 114.117 8.9375C114.69 8.9375 115.224 9.01237 115.719 9.16211C116.22 9.30534 116.611 9.52344 116.891 9.81641C116.904 9.76432 116.92 9.67969 116.939 9.5625C116.965 9.4388 116.988 9.32487 117.008 9.2207C117.034 9.11654 117.047 9.06445 117.047 9.06445C117.047 9.06445 117.138 9.07422 117.32 9.09375C117.509 9.10677 117.717 9.1263 117.945 9.15234C118.18 9.17188 118.368 9.18815 118.512 9.20117V11.8184H116.969C116.865 11.3431 116.617 10.9655 116.227 10.6855C115.842 10.4056 115.331 10.2559 114.693 10.2363C114.179 10.2363 113.805 10.334 113.57 10.5293C113.342 10.7181 113.229 10.9362 113.229 11.1836C113.229 11.4961 113.417 11.737 113.795 11.9062C114.173 12.0755 114.697 12.2611 115.367 12.4629C116.129 12.6712 116.773 12.8991 117.301 13.1465C117.835 13.3874 118.238 13.6901 118.512 14.0547C118.785 14.4128 118.922 14.8783 118.922 15.4512C118.922 16.1022 118.746 16.6328 118.395 17.043C118.043 17.4466 117.587 17.7428 117.027 17.9316C116.474 18.1204 115.888 18.2148 115.27 18.2148ZM122.516 18.1172C121.982 18.1172 121.565 18.013 121.266 17.8047C120.973 17.5964 120.826 17.3034 120.826 16.9258C120.826 16.5872 120.976 16.3073 121.275 16.0859C121.581 15.8581 121.995 15.7441 122.516 15.7441C123.017 15.7441 123.421 15.8548 123.727 16.0762C124.039 16.291 124.195 16.5742 124.195 16.9258C124.195 17.2643 124.049 17.5475 123.756 17.7754C123.469 18.0033 123.056 18.1172 122.516 18.1172Z" fill="white"/>
<rect width="18" height="18" fill="white"/>
<rect x="7" y="6" width="18" height="18" fill="#212529"/>
</svg>
